<svg version="1.1" xmlns="http://www.w3.org/2000/svg" viewBox="0 0 250 250"><desc>Created with Snap</desc><defs></defs><g transform="matrix(0.0271,0,0,0.0271,30.4944,150.6795)"><rect x="-1123.5838539123536" y="-3265.792077636718" width="9211.3921875" height="4639.232055664062" fill="#540d6e" style=""></rect><g transform="matrix(20.6765,0,0,20.6765,2448.288,-3061.9745)"><g><path d="M78.4,66.5c-5.5,4.8-9.9,15.2-9.9,15.2s-6.9-11.4-12.9-15.3c-9.5-6.1-13.6-6.2-13.6-6.2V65c0,0,7.8,1.2,11.7,4.6   c8.2,7.1,14.8,18.5,14.8,18.5S74.4,75,80.1,70.5C88.1,64.3,95,65,95,65v-4.8C95,60.1,85.1,60.7,78.4,66.5z" fill="#ffffff" style=""></path><path d="M42,80c-6.4-3.6-17.8-4.3-17.8-4.3s8.7-10.1,10.5-17C37.5,47.9,36.2,44,36.2,44l-4.6,1.6c0,0,1.3,7.7-0.6,12.4   c-4.1,9.9-13,19.8-13,19.8s14.6,1.3,20.7,5.1c8.6,5.4,10.2,12,10.2,12l4.6-1.6C53.5,93.4,49.7,84.4,42,80z" fill="#ffffff" style=""></path><path d="M35.3,36.8c11.3-0.9,14.6-3.4,14.6-3.4l-3-3.8c0,0-6.9,3.7-12.1,3.4c-10.9-0.6-23.3-5.6-23.3-5.6s3.5,14,1.8,20.9   C10.9,58.2,5,61.8,5,61.8l3,3.8c0,0,7.5-6.5,9.1-15.1c1.3-7.1-1.7-18-1.7-18S28,37.4,35.3,36.8z" fill="#ffffff" style=""></path><path d="M37.4,17.8c7.3-1.1,16.7-7.4,16.7-7.4s-0.6,13.2,2.4,19.8c4.6,10.2,8,12.5,8,12.5l2.7-4c0,0-5.9-5.2-7.3-10.2   C56.9,18.2,57.7,5,57.7,5s-12.3,7.8-19.5,8.5c-10.2,1-15.6-3.3-15.6-3.3l-2.7,4.1C19.9,14.2,28.6,19.1,37.4,17.8z" fill="#ffffff" style=""></path><path d="M65,60.5c0,0,3.1-7.2,7.4-10.1c9-6.1,21.9-9.7,21.9-9.7s-11.5-8.9-14.5-15.4c-4.2-9.1-1.9-15.6-1.9-15.6l-4.8-1.2   c0,0-1.9,9.6,2.2,17.4c3.4,6.4,12.5,13.2,12.5,13.2S75,42.9,69.6,47.8c-8.3,7.6-9.4,11.5-9.4,11.5L65,60.5z" fill="#ffffff" style=""></path></g><desc>Created with Snap</desc><defs></defs></g><g><g transform="matrix(1.024,0,0,-1.024,0,0)"><path d="M127 0L32 0L348 753L354 753L669 0L558 0L322 601L391 646L127 0ZM189 190L217 274L486 274L518 190L189 190ZM955 -12L950 -12L720 414L830 414L986 85L929 87L1072 414L1176 414L955 -12ZM1468 -10Q1397 -10 1346 18Q1295 47 1267 96Q1240 146 1240 210Q1240 271 1271 321Q1302 371 1354 401Q1406 431 1470 431Q1552 431 1606 383Q1660 335 1679 251L1338 131L1316 186L1596 288L1576 275Q1564 308 1536 332Q1508 357 1463 357Q1425 357 1395 338Q1365 320 1348 288Q1331 256 1331 215Q1331 172 1349 139Q1367 107 1398 88Q1430 70 1470 70Q1497 70 1522 80Q1548 90 1570 106L1613 37Q1582 16 1543 3Q1505 -10 1468 -10ZM1796 414L1879 414L1887 313L1883 329Q1903 375 1948 402Q1993 430 2052 430Q2111 430 2148 395Q2186 361 2187 306L2187 0L2093 0L2093 273Q2092 307 2073 328Q2055 350 2016 350Q1980 350 1951 330Q1922 310 1905 275Q1889 240 1889 194L1889 0L1796 0L1796 414ZM2389 412L2389 596L2482 596L2482 412L2596 412L2596 339L2482 339L2482 0L2389 0L2389 339L2313 339L2313 412L2389 412ZM2839 -16Q2783 -16 2746 18Q2710 53 2708 108L2708 414L2801 414L2801 141Q2803 107 2820 86Q2838 65 2876 64Q2911 64 2938 84Q2966 105 2983 140Q3000 176 3000 221L3000 414L3093 414L3093 0L3008 0L3000 102L3005 84Q2993 55 2968 32Q2944 10 2911 -3Q2878 -16 2839 -16ZM3254 414L3337 414L3346 294L3341 310Q3357 348 3387 374Q3418 401 3451 415Q3485 430 3510 430L3505 338Q3458 341 3422 320Q3387 299 3366 264Q3346 229 3346 189L3346 0L3254 0L3254 414ZM3822 -10Q3751 -10 3700 18Q3649 47 3621 96Q3594 146 3594 210Q3594 271 3625 321Q3656 371 3708 401Q3760 431 3824 431Q3906 431 3960 383Q4014 335 4033 251L3692 131L3670 186L3950 288L3930 275Q3918 308 3890 332Q3862 357 3817 357Q3779 357 3749 338Q3719 320 3702 288Q3685 256 3685 215Q3685 172 3703 139Q3721 107 3752 88Q3784 70 3824 70Q3851 70 3876 80Q3902 90 3924 106L3967 37Q3936 16 3897 3Q3859 -10 3822 -10ZM4489 723L4681 723Q4736 723 4782 708Q4829 694 4863 665Q4898 637 4917 595Q4937 554 4937 499Q4937 456 4924 415Q4912 374 4883 340Q4854 307 4807 286Q4761 266 4693 266L4586 266L4586 0L4489 0L4489 723ZM4586 359L4691 359Q4734 359 4762 372Q4791 385 4807 405Q4823 426 4830 450Q4837 474 4837 495Q4837 517 4829 540Q4822 564 4805 584Q4789 604 4762 617Q4736 630 4698 630L4586 630L4586 359ZM4695 301L4810 304L4999 0L4887 0L4695 301ZM5125 0L5125 414L5218 414L5218 0L5125 0ZM5118 564Q5118 586 5135 601Q5153 616 5174 616Q5195 616 5211 601Q5228 586 5228 564Q5228 541 5211 526Q5195 512 5174 512Q5153 512 5135 527Q5118 542 5118 564ZM5547 -10Q5490 -10 5443 17Q5397 45 5370 95Q5343 146 5343 212Q5343 281 5371 330Q5400 379 5449 405Q5498 431 5559 431Q5608 431 5652 410Q5697 389 5722 352L5718 319L5718 774L5810 774L5810 0L5717 0L5717 103L5727 77Q5698 39 5652 14Q5606 -10 5547 -10ZM5576 69Q5613 69 5642 82Q5671 96 5690 120Q5709 144 5717 177L5717 255Q5709 285 5688 307Q5668 330 5639 343Q5611 357 5576 357Q5538 357 5506 338Q5475 320 5456 288Q5437 256 5437 214Q5437 173 5456 140Q5475 108 5507 88Q5539 69 5576 69ZM6164 -10Q6093 -10 6042 18Q5991 47 5963 96Q5936 146 5936 210Q5936 271 5967 321Q5998 371 6050 401Q6102 431 6166 431Q6248 431 6302 383Q6356 335 6375 251L6034 131L6012 186L6292 288L6272 275Q6260 308 6232 332Q6204 357 6159 357Q6121 357 6091 338Q6061 320 6044 288Q6027 256 6027 215Q6027 172 6045 139Q6063 107 6094 88Q6126 70 6166 70Q6193 70 6218 80Q6244 90 6266 106L6309 37Q6278 16 6239 3Q6201 -10 6164 -10ZM6608 -8Q6564 -8 6522 7Q6481 23 6454 54L6493 108Q6519 83 6546 70Q6574 58 6601 58Q6621 58 6638 63Q6655 68 6665 79Q6676 91 6676 111Q6676 133 6661 146Q6647 159 6624 167Q6602 175 6577 182Q6526 199 6499 229Q6472 259 6472 302Q6472 335 6488 363Q6505 392 6537 410Q6570 428 6618 428Q6661 428 6695 417Q6729 407 6759 383L6722 325Q6704 344 6679 353Q6654 362 6634 363Q6617 364 6601 358Q6586 352 6576 341Q6566 330 6566 315Q6566 294 6580 281Q6594 268 6616 260Q6639 253 6661 245Q6692 236 6716 221Q6740 206 6754 184Q6769 162 6769 129Q6769 92 6751 60Q6734 29 6698 10Q6663 -8 6608 -8Z" fill="#ffffff" style=""></path></g></g><g transform="matrix(0.75,0,0,0.75,-816.3839,901.12)"><g transform="matrix(1.024,0,0,-1.024,0,0)"><path d="M222 29L222 0L0 0L0 29Q36 45 72 53L325 712L354 712L607 53Q627 49 646 44Q666 39 683 29L683 0L427 0L427 29Q447 37 468 43Q489 49 509 53L441 236L202 236L136 53Q178 47 222 29ZM299 498L222 288L424 288L345 500L326 586L324 586L299 498ZM1060 99L1056 99Q1051 77 1039 57Q1027 37 1009 21Q992 6 969 -3Q947 -12 921 -12Q822 -12 773 51Q724 114 724 247Q724 375 786 442Q849 509 955 509Q992 509 1013 505Q1034 502 1059 493L1059 682L983 690L983 716Q1012 728 1050 737Q1089 746 1124 752L1149 752L1149 57L1215 49L1215 28Q1186 14 1155 4Q1124 -6 1094 -10L1069 -10L1060 99ZM941 50Q990 50 1019 81Q1048 112 1059 165L1059 447Q1042 457 1019 461Q996 465 960 465Q892 465 856 405Q820 346 820 247Q820 206 827 170Q834 135 849 108Q864 81 886 65Q909 50 941 50ZM1521 0L1476 -12L1281 450Q1252 460 1228 474L1228 500L1437 500L1437 475Q1424 468 1410 461Q1397 455 1380 450L1496 149L1516 87L1518 87L1533 150L1640 450Q1624 454 1610 460Q1597 466 1585 474L1585 500L1755 500L1755 474Q1745 467 1730 461Q1716 455 1698 450L1521 0ZM2177 86L2191 70Q2183 53 2166 38Q2149 23 2127 12Q2105 1 2079 -6Q2053 -12 2026 -12Q1967 -12 1922 6Q1877 25 1847 59Q1817 94 1801 142Q1786 190 1786 250Q1786 378 1845 445Q1904 512 2012 512Q2047 512 2081 502Q2115 493 2141 471Q2168 449 2184 412Q2201 376 2201 322Q2201 305 2199 287Q2198 270 2194 250L1882 250Q1882 208 1892 171Q1903 135 1924 108Q1945 81 1977 65Q2009 50 2052 50Q2087 50 2123 60Q2159 70 2177 86ZM2008 468Q1951 468 1921 429Q1891 391 1885 294L2105 294Q2106 303 2106 311Q2107 320 2107 328Q2107 392 2083 430Q2059 468 2008 468ZM2825 25L2825 0L2610 0L2610 25Q2637 39 2669 49L2669 286Q2669 362 2647 406Q2625 450 2567 450Q2542 450 2520 441Q2499 432 2482 416Q2466 401 2454 381Q2442 362 2435 341L2435 49Q2466 43 2495 25L2495 0L2279 0L2279 25Q2304 38 2345 49L2345 442L2279 450L2279 476Q2305 487 2339 496Q2373 505 2410 512L2435 512L2435 400L2436 400Q2457 446 2496 479Q2536 512 2592 512Q2632 512 2663 502Q2695 493 2716 469Q2737 445 2748 404Q2759 364 2759 302L2759 49Q2799 42 2825 25ZM2857 450L2857 476Q2895 500 2937 510L2937 595Q2950 606 2967 614Q2985 623 3002 631L3027 631L3027 500L3177 500L3177 450L3027 450L3027 160Q3027 100 3046 75Q3065 50 3103 50Q3121 50 3148 52Q3175 55 3194 62L3201 47Q3193 38 3178 28Q3164 18 3145 9Q3127 0 3105 -6Q3083 -12 3060 -12Q3000 -12 2968 22Q2937 56 2937 132L2937 450L2857 450ZM3290 198Q3290 261 3293 321Q3296 382 3296 442L3230 450L3230 476Q3262 488 3295 497Q3329 506 3361 512L3386 512Q3386 437 3383 363Q3380 289 3380 216Q3380 177 3384 146Q3389 115 3400 94Q3412 73 3432 61Q3452 50 3483 50Q3528 50 3558 82Q3589 115 3606 167L3606 442L3541 450L3541 476Q3572 488 3605 497Q3639 506 3671 512L3696 512L3696 57L3762 49L3762 28Q3733 15 3703 5Q3674 -5 3642 -10L3617 -10L3610 109L3606 109Q3601 88 3588 66Q3576 45 3556 27Q3536 10 3510 -1Q3485 -12 3455 -12Q3415 -12 3384 -3Q3354 7 3333 31Q3312 55 3301 95Q3290 136 3290 198ZM4164 425L4031 425Q4020 419 4003 400Q3987 382 3974 346L3974 49Q3994 47 4014 41Q4034 36 4054 25L4054 0L3818 0L3818 25Q3836 35 3852 40Q3868 45 3884 49L3884 442L3818 450L3818 476Q3850 490 3884 498Q3918 507 3949 512L3974 512L3974 406L3978 406Q3987 426 4003 446Q4020 466 4041 482Q4063 498 4088 506Q4114 515 4141 512Q4148 499 4153 483Q4159 468 4164 451L4164 425ZM4603 86L4617 70Q4609 53 4592 38Q4575 23 4553 12Q4531 1 4505 -6Q4479 -12 4452 -12Q4393 -12 4348 6Q4303 25 4273 59Q4243 94 4227 142Q4212 190 4212 250Q4212 378 4271 445Q4330 512 4438 512Q4473 512 4507 502Q4541 493 4567 471Q4594 449 4610 412Q4627 376 4627 322Q4627 305 4625 287Q4624 270 4620 250L4308 250Q4308 208 4318 171Q4329 135 4350 108Q4371 81 4403 65Q4435 50 4478 50Q4513 50 4549 60Q4585 70 4603 86ZM4434 468Q4377 468 4347 429Q4317 391 4311 294L4531 294Q4532 303 4532 311Q4533 320 4533 328Q4533 392 4509 430Q4485 468 4434 468ZM4745 -179L4725 -149Q4744 -142 4761 -128Q4778 -113 4790 -95Q4803 -77 4809 -56Q4816 -34 4814 -13Q4802 -2 4782 9Q4762 20 4747 25Q4742 44 4746 62Q4751 80 4760 94Q4769 108 4780 116Q4792 125 4803 126Q4838 121 4864 95Q4891 69 4891 17Q4891 -11 4881 -42Q4871 -72 4852 -99Q4833 -126 4806 -148Q4779 -169 4745 -179ZM5239 671L5239 700L5493 700L5493 671Q5475 663 5456 656Q5437 650 5417 646L5417 86Q5417 16 5401 -29Q5385 -74 5361 -102Q5338 -129 5311 -142Q5285 -155 5263 -160L5252 -145Q5267 -132 5279 -116Q5292 -99 5301 -74Q5311 -49 5316 -13Q5321 23 5321 75L5321 646Q5299 651 5278 657Q5257 663 5239 671ZM5582 250Q5582 313 5598 361Q5615 410 5646 443Q5677 477 5720 494Q5764 512 5817 512Q5879 512 5924 493Q5969 474 5997 439Q6026 405 6039 357Q6053 309 6053 250Q6053 124 5989 56Q5925 -12 5817 -12Q5757 -12 5713 6Q5669 25 5640 59Q5611 94 5596 142Q5582 191 5582 250ZM5678 250Q5678 205 5686 165Q5695 125 5713 95Q5732 66 5762 49Q5792 32 5834 32Q5888 32 5922 85Q5957 138 5957 250Q5957 296 5948 335Q5940 375 5922 404Q5904 434 5876 451Q5848 468 5809 468Q5750 468 5714 415Q5678 362 5678 250ZM6344 0L6136 450Q6121 454 6108 460Q6096 466 6083 474L6083 500L6292 500L6292 475Q6271 461 6235 450L6363 154L6382 92L6384 92L6399 155L6494 450Q6464 456 6439 474L6439 500L6610 500L6610 474Q6589 460 6553 450L6397 0Q6373 -64 6351 -104Q6330 -143 6308 -166Q6287 -189 6264 -200Q6242 -210 6216 -215Q6205 -196 6196 -173Q6188 -150 6182 -129L6195 -105L6299 -105Q6305 -97 6309 -90Q6314 -82 6319 -71Q6324 -60 6330 -43Q6336 -26 6344 0ZM7252 131Q7252 109 7253 93Q7254 77 7255 59L7324 49L7324 28Q7299 15 7268 5Q7238 -5 7210 -10L7185 -10Q7175 13 7173 40Q7171 68 7170 101L7165 101Q7161 81 7149 60Q7138 40 7119 24Q7101 8 7076 -2Q7051 -12 7019 -12Q6958 -12 6919 25Q6881 62 6881 122Q6881 168 6899 197Q6918 227 6954 244Q6990 261 7043 268Q7096 276 7166 280Q7170 323 7168 357Q7167 392 7157 416Q7148 441 7129 454Q7111 468 7081 468Q7067 468 7049 466Q7032 465 7015 458L6968 338L6942 338Q6932 368 6924 400Q6917 432 6915 463Q6953 486 6999 499Q7046 512 7103 512Q7154 512 7184 497Q7215 483 7231 460Q7247 437 7252 409Q7257 381 7257 353Q7257 293 7254 237Q7252 182 7252 131ZM7059 50Q7084 50 7103 60Q7122 70 7135 84Q7148 98 7156 112Q7164 127 7167 137L7167 242Q7109 242 7072 236Q7035 230 7014 217Q6993 204 6985 184Q6977 165 6977 140Q6977 97 6999 73Q7021 50 7059 50ZM7924 25L7924 0L7709 0L7709 25Q7736 39 7768 49L7768 286Q7768 362 7746 406Q7724 450 7666 450Q7641 450 7619 441Q7598 432 7581 416Q7565 401 7553 381Q7541 362 7534 341L7534 49Q7565 43 7594 25L7594 0L7378 0L7378 25Q7403 38 7444 49L7444 442L7378 450L7378 476Q7404 487 7438 496Q7472 505 7509 512L7534 512L7534 400L7535 400Q7556 446 7595 479Q7635 512 7691 512Q7731 512 7762 502Q7794 493 7815 469Q7836 445 7847 404Q7858 364 7858 302L7858 49Q7898 42 7924 25ZM8318 99L8314 99Q8309 77 8297 57Q8285 37 8267 21Q8250 6 8227 -3Q8205 -12 8179 -12Q8080 -12 8031 51Q7982 114 7982 247Q7982 375 8044 442Q8107 509 8213 509Q8250 509 8271 505Q8292 502 8317 493L8317 682L8241 690L8241 716Q8270 728 8308 737Q8347 746 8382 752L8407 752L8407 57L8473 49L8473 28Q8444 14 8413 4Q8382 -6 8352 -10L8327 -10L8318 99ZM8199 50Q8248 50 8277 81Q8306 112 8317 165L8317 447Q8300 457 8277 461Q8254 465 8218 465Q8150 465 8114 405Q8078 346 8078 247Q8078 206 8085 170Q8092 135 8107 108Q8122 81 8144 65Q8167 50 8199 50ZM9189 29L9189 0L8908 0L8908 29Q8930 37 8952 43Q8975 49 9001 53L9001 648L8848 648L8795 505L8770 505Q8767 525 8765 550Q8763 576 8761 602Q8760 629 8759 654Q8758 680 8758 700L9339 700Q9339 680 9338 655Q9337 630 9335 603Q9334 577 9332 551Q9331 526 9328 505L9302 505L9250 648L9097 648L9097 53Q9123 48 9145 43Q9168 38 9189 29ZM9928 25L9928 0L9712 0L9712 25Q9736 38 9772 49L9772 283Q9772 361 9750 405Q9728 450 9670 450Q9644 450 9623 440Q9602 431 9585 416Q9568 401 9556 381Q9544 362 9538 341L9538 49Q9554 45 9568 40Q9583 35 9597 25L9597 0L9382 0L9382 25Q9413 41 9448 49L9448 682L9372 690L9372 716Q9401 728 9439 737Q9478 746 9513 752L9538 752L9538 399L9539 399Q9560 446 9599 479Q9639 512 9695 512Q9735 512 9766 502Q9798 493 9819 469Q9840 445 9851 404Q9862 364 9862 302L9862 49Q9879 45 9896 40Q9913 35 9928 25ZM10322 425L10189 425Q10178 419 10161 400Q10145 382 10132 346L10132 49Q10152 47 10172 41Q10192 36 10212 25L10212 0L9976 0L9976 25Q9994 35 10010 40Q10026 45 10042 49L10042 442L9976 450L9976 476Q10008 490 10042 498Q10076 507 10107 512L10132 512L10132 406L10136 406Q10145 426 10161 446Q10178 466 10199 482Q10221 498 10246 506Q10272 515 10299 512Q10306 499 10311 483Q10317 468 10322 451L10322 425ZM10592 25L10592 0L10370 0L10370 25Q10385 33 10401 38Q10417 44 10436 49L10436 442L10370 450L10370 476Q10399 488 10433 497Q10467 506 10501 512L10526 512L10526 49Q10546 44 10562 38Q10578 33 10592 25ZM10417 670Q10417 697 10434 713Q10452 729 10481 729Q10510 729 10527 713Q10544 697 10544 670Q10544 643 10527 627Q10510 612 10481 612Q10452 612 10434 627Q10417 643 10417 670ZM10893 25L10893 0L10671 0L10671 25Q10704 41 10737 49L10737 682L10661 690L10661 716Q10687 728 10726 737Q10765 746 10802 752L10827 752L10827 49Q10860 41 10893 25ZM11194 25L11194 0L10972 0L10972 25Q11005 41 11038 49L11038 682L10962 690L10962 716Q10988 728 11027 737Q11066 746 11103 752L11128 752L11128 49Q11161 41 11194 25Z" fill="#ffffff" style=""></path></g></g></g></svg>